<svg t="1689403054897" class="icon" viewBox="0 0 1024 1024" version="1.1" xmlns="http://www.w3.org/2000/svg" p-id="4172" xmlns:xlink="http://www.w3.org/1999/xlink"><path d="M213.01504 257.47968l148.18816 423.02464-31.07328-22.0416h618.78272a32.9216 32.9216 0 1 1 0 65.8432H330.1248a32.9216 32.9216 0 0 1-31.06816-22.03136L68.39552 43.80672l31.07328 22.0416H32.92928A32.9216 32.9216 0 0 1 32.92928 0h66.53952a32.91648 32.91648 0 0 1 31.06816 22.0416l59.43808 169.66144h801.08544c20.82816 0 36.43392 19.11808 32.24064 39.53664l-52.5568 256.30208a32.9216 32.9216 0 0 1-28.61056 26.10176l-486.37952 54.17984a32.9216 32.9216 0 1 1-7.29088-65.4336l463.0272-53.14048s23.38816-108.3392 40.49408-191.69792c0.37888-1.83808-598.43584-0.43008-738.9696-0.07168z m191.70304 601.7792c26.33216 0 47.75424 21.42208 47.75424 47.75936 0 26.33216-21.42208 47.73888-47.75424 47.73888-26.32704 0-47.74912-21.41184-47.74912-47.73888-0.00512-26.33728 21.42208-47.75936 47.74912-47.75936m0-62.85824c-61.09184 0-110.6176 49.52064-110.6176 110.6176 0 61.09184 49.52576 110.61248 110.6176 110.61248 61.09696 0 110.62784-49.52064 110.62784-110.61248 0-61.09696-49.53088-110.6176-110.62784-110.6176z m460.92288 62.85824c26.33216 0 47.74912 21.42208 47.74912 47.75936 0 26.33216-21.42208 47.73888-47.74912 47.73888s-47.744-21.41184-47.744-47.73888c0-26.33728 21.41184-47.75936 47.744-47.75936m0-62.85824c-61.09696 0-110.61248 49.52064-110.61248 110.6176 0 61.09184 49.52576 110.61248 110.61248 110.61248s110.61248-49.52064 110.61248-110.61248c0-61.09696-49.52576-110.6176-110.61248-110.6176z" p-id="4173"></path></svg>