<svg t="1693883713233" class="icon" viewBox="0 0 1024 1024" version="1.1" xmlns="http://www.w3.org/2000/svg" p-id="19264" xmlns:xlink="http://www.w3.org/1999/xlink"><path d="M922 307H102c-18.9 0-34.2-15.3-34.2-34.2s15.3-34.2 34.2-34.2h820c18.9 0 34.2 15.3 34.2 34.2S940.9 307 922 307zM922 546.2H102c-18.9 0-34.2-15.3-34.2-34.2 0-18.9 15.3-34.2 34.2-34.2h820c18.9 0 34.2 15.3 34.2 34.2 0 18.9-15.3 34.2-34.2 34.2zM922 785.3H102c-18.9 0-34.2-15.3-34.2-34.2S83.1 717 102 717h820c18.9 0 34.2 15.3 34.2 34.2s-15.3 34.1-34.2 34.1z" p-id="19265"></path></svg>