<svg t="1675753356031" class="icon" viewBox="0 0 1030 1024" version="1.1" xmlns="http://www.w3.org/2000/svg" p-id="1567" xmlns:xlink="http://www.w3.org/1999/xlink"><path d="M748.8 281.6c-6.4-6.4-12.8-19.2-19.2-25.6-12.8-19.2-38.4-19.2-51.2-6.4-19.2 12.8-19.2 38.4-6.4 57.6 6.4 12.8 12.8 19.2 19.2 25.6 38.4 51.2 70.4 96 70.4 179.2s-32 134.4-70.4 185.6l-12.8 19.2c-12.8 19.2-6.4 44.8 6.4 57.6 6.4 6.4 12.8 6.4 19.2 6.4 12.8 0 25.6-6.4 32-19.2l12.8-19.2c38.4-57.6 89.6-128 89.6-236.8-6.4-102.4-44.8-166.4-89.6-224zM512 0c-25.6 0-51.2 12.8-83.2 44.8l-217.6 224h-96c-64 0-115.2 51.2-115.2 121.6v236.8c0 64 51.2 121.6 115.2 121.6h96l217.6 230.4c32 32 57.6 44.8 83.2 44.8s57.6-19.2 57.6-76.8v-876.8c0-51.2-32-70.4-57.6-70.4z m-19.2 934.4c-6.4 0-6.4-6.4-12.8-12.8l-230.4-236.8c-6.4-6.4-19.2-12.8-25.6-12.8h-115.2c-19.2 0-38.4-19.2-38.4-38.4v-236.8c0-19.2 19.2-38.4 38.4-38.4h115.2c12.8 0 19.2-6.4 25.6-12.8l230.4-236.8 12.8-12.8v838.4z" p-id="1568"></path><path d="M864 121.6c-12.8-19.2-38.4-19.2-51.2-6.4s-19.2 38.4-6.4 57.6c76.8 89.6 147.2 198.4 147.2 339.2 0 147.2-70.4 249.6-147.2 339.2-12.8 19.2-12.8 38.4 6.4 57.6 6.4 6.4 12.8 12.8 25.6 12.8s19.2-6.4 25.6-12.8c83.2-96 166.4-224 166.4-390.4-6.4-179.2-89.6-300.8-166.4-396.8z" p-id="1569"></path></svg>