<svg t="1687922640364" class="icon" viewBox="0 0 1024 1024" version="1.1" xmlns="http://www.w3.org/2000/svg" p-id="2303" xmlns:xlink="http://www.w3.org/1999/xlink"><path d="M524.190476 73.142857a207.238095 207.238095 0 0 1 207.238095 207.238095v12.190477h-73.142857v-12.190477a134.095238 134.095238 0 0 0-268.190476 0V341.333333h438.857143a73.142857 73.142857 0 0 1 73.142857 73.142857v438.857143a73.142857 73.142857 0 0 1-73.142857 73.142857H195.047619a73.142857 73.142857 0 0 1-73.142857-73.142857V414.47619a73.142857 73.142857 0 0 1 73.142857-73.142857h121.904762v-60.952381A207.238095 207.238095 0 0 1 524.190476 73.142857zM828.952381 414.47619H195.047619v438.857143h633.904762V414.47619z m-268.190476 121.904762v195.047619h-73.142857v-195.047619h73.142857z" p-id="2304"></path></svg>