<svg t="1693879642693" class="icon" viewBox="0 0 1066 1024" version="1.1" xmlns="http://www.w3.org/2000/svg" p-id="5152" xmlns:xlink="http://www.w3.org/1999/xlink"><path d="M976.981333 336.213333a491.136 491.136 0 0 0-106.069333-157.525333 494.933333 494.933333 0 0 0-157.525333-106.069333A492.373333 492.373333 0 0 0 520.618667 33.706667c-54.826667 0-108.330667 8.789333-159.317334 26.112C242.218667 4.266667 104.704 0 65.28 0c-2.901333 0-9.685333 0-12.288 0.213333A47.402667 47.402667 0 0 0 10.410667 65.28l83.968 211.114667a494.634667 494.634667 0 0 0-68.992 252.416c0 67.072 13.098667 131.882667 38.912 192.810666a489.130667 489.130667 0 0 0 106.112 157.397334 494.933333 494.933333 0 0 0 157.482666 106.069333c61.098667 25.898667 125.994667 38.912 192.810667 38.912 66.986667 0 131.882667-13.226667 192.981333-38.912a491.392 491.392 0 0 0 157.312-106.069333 494.933333 494.933333 0 0 0 106.112-157.525334c25.898667-61.013333 38.869333-125.994667 38.869334-192.810666a490.24 490.24 0 0 0-38.997334-192.469334z m-66.176 357.290667a421.12 421.12 0 0 1-90.709333 134.613333 417.877333 417.877333 0 0 1-134.4 90.581334h-0.213333a423.253333 423.253333 0 0 1-164.992 33.194666c-57.173333 0-112.597333-11.178667-164.693334-33.194666a421.12 421.12 0 0 1-134.613333-90.709334 417.877333 417.877333 0 0 1-90.581333-134.4v-0.170666a420.352 420.352 0 0 1-33.194667-164.693334c0-76.117333 20.394667-150.741333 58.88-215.722666l18.090667-30.421334-13.098667-32.853333-70.485333-177.109333c20.48 0.768 49.408 2.901333 82.090666 7.68 60.330667 8.917333 113.493333 24.021333 158.122667 44.8l26.197333 12.202666L384.597333 128a420.693333 420.693333 0 0 1 136.106667-22.186667c57.301333 0 112.682667 11.178667 164.693333 33.194667a421.12 421.12 0 0 1 134.613334 90.709333 417.877333 417.877333 0 0 1 90.581333 134.4l0.128 0.085334 0.085333 0.085333a419.925333 419.925333 0 0 1 33.28 164.608 422.101333 422.101333 0 0 1-33.28 164.608z" p-id="5153"></path><path d="M503.466667 318.890667c-26.752 0-48.469333 21.802667-48.469334 48.512v71.978666a48.554667 48.554667 0 0 0 96.981334 0V367.402667c0-26.794667-21.76-48.512-48.469334-48.512z m229.034666 0a48.64 48.64 0 0 0-48.512 48.512v71.978666a48.554667 48.554667 0 0 0 97.024 0V367.402667c0-26.794667-21.802667-48.512-48.512-48.512z" p-id="5154"></path></svg>